<mxfile host="app.diagrams.net" modified="2024-01-27T21:21:12.545Z" agent="Mozilla/5.0 (Windows NT 10.0; Win64; x64) AppleWebKit/537.36 (KHTML, like Gecko) Chrome/120.0.0.0 Safari/537.36" etag="ZYy9Plp2WInV8NFS4RtT" version="23.0.2" type="device">
  <diagram name="Страница — 1" id="0fa84lGJ3Ur0DpcdbE08">
    <mxGraphModel dx="2227" dy="707" grid="1" gridSize="10" guides="1" tooltips="1" connect="1" arrows="1" fold="1" page="1" pageScale="1" pageWidth="827" pageHeight="1169" math="0" shadow="0">
      <root>
        <mxCell id="0" />
        <mxCell id="1" parent="0" />
        <mxCell id="DwYS4f3A43nsCljsXzWR-96" style="edgeStyle=orthogonalEdgeStyle;rounded=0;orthogonalLoop=1;jettySize=auto;html=1;entryX=0;entryY=0.5;entryDx=0;entryDy=0;" parent="1" source="DwYS4f3A43nsCljsXzWR-97" edge="1">
          <mxGeometry relative="1" as="geometry">
            <Array as="points">
              <mxPoint x="29.96999999999997" y="1660" />
              <mxPoint x="29.96999999999997" y="1540" />
            </Array>
            <mxPoint x="49.97000000000003" y="1540" as="targetPoint" />
          </mxGeometry>
        </mxCell>
        <mxCell id="jgNTlZRsylbbgRsnklGr-28" style="edgeStyle=orthogonalEdgeStyle;rounded=0;orthogonalLoop=1;jettySize=auto;html=1;entryX=0.5;entryY=0;entryDx=0;entryDy=0;" edge="1" parent="1" source="jgNTlZRsylbbgRsnklGr-2" target="jgNTlZRsylbbgRsnklGr-3">
          <mxGeometry relative="1" as="geometry" />
        </mxCell>
        <mxCell id="jgNTlZRsylbbgRsnklGr-2" value="START" style="ellipse;whiteSpace=wrap;html=1;" vertex="1" parent="1">
          <mxGeometry x="-320" y="180" width="120" height="80" as="geometry" />
        </mxCell>
        <mxCell id="jgNTlZRsylbbgRsnklGr-11" style="edgeStyle=orthogonalEdgeStyle;rounded=0;orthogonalLoop=1;jettySize=auto;html=1;entryX=0.5;entryY=0;entryDx=0;entryDy=0;" edge="1" parent="1" source="jgNTlZRsylbbgRsnklGr-3" target="jgNTlZRsylbbgRsnklGr-4">
          <mxGeometry relative="1" as="geometry" />
        </mxCell>
        <mxCell id="jgNTlZRsylbbgRsnklGr-3" value="IntupArray[ ] = { }&amp;nbsp; NewArray[ ]" style="shape=parallelogram;perimeter=parallelogramPerimeter;whiteSpace=wrap;html=1;fixedSize=1;" vertex="1" parent="1">
          <mxGeometry x="-320" y="320" width="120" height="60" as="geometry" />
        </mxCell>
        <mxCell id="jgNTlZRsylbbgRsnklGr-12" style="edgeStyle=orthogonalEdgeStyle;rounded=0;orthogonalLoop=1;jettySize=auto;html=1;entryX=0.5;entryY=0;entryDx=0;entryDy=0;" edge="1" parent="1" source="jgNTlZRsylbbgRsnklGr-4" target="jgNTlZRsylbbgRsnklGr-5">
          <mxGeometry relative="1" as="geometry" />
        </mxCell>
        <mxCell id="jgNTlZRsylbbgRsnklGr-4" value="IntupArray[ ] = {} NewArray[ ]&lt;br&gt;i = 0&lt;br&gt;j = 0" style="rounded=0;whiteSpace=wrap;html=1;" vertex="1" parent="1">
          <mxGeometry x="-320" y="430" width="120" height="60" as="geometry" />
        </mxCell>
        <mxCell id="jgNTlZRsylbbgRsnklGr-25" style="edgeStyle=orthogonalEdgeStyle;rounded=0;orthogonalLoop=1;jettySize=auto;html=1;entryX=0;entryY=0.5;entryDx=0;entryDy=0;" edge="1" parent="1" source="jgNTlZRsylbbgRsnklGr-5" target="jgNTlZRsylbbgRsnklGr-8">
          <mxGeometry relative="1" as="geometry" />
        </mxCell>
        <mxCell id="jgNTlZRsylbbgRsnklGr-26" value="no" style="edgeLabel;html=1;align=center;verticalAlign=middle;resizable=0;points=[];" vertex="1" connectable="0" parent="jgNTlZRsylbbgRsnklGr-25">
          <mxGeometry x="-0.016" y="2" relative="1" as="geometry">
            <mxPoint as="offset" />
          </mxGeometry>
        </mxCell>
        <mxCell id="jgNTlZRsylbbgRsnklGr-5" value="i &amp;lt; IntupArray.Length" style="rhombus;whiteSpace=wrap;html=1;" vertex="1" parent="1">
          <mxGeometry x="-330" y="545" width="150" height="80" as="geometry" />
        </mxCell>
        <mxCell id="jgNTlZRsylbbgRsnklGr-18" style="edgeStyle=orthogonalEdgeStyle;rounded=0;orthogonalLoop=1;jettySize=auto;html=1;" edge="1" parent="1" source="jgNTlZRsylbbgRsnklGr-6" target="jgNTlZRsylbbgRsnklGr-7">
          <mxGeometry relative="1" as="geometry" />
        </mxCell>
        <mxCell id="jgNTlZRsylbbgRsnklGr-19" value="yes" style="edgeLabel;html=1;align=center;verticalAlign=middle;resizable=0;points=[];" vertex="1" connectable="0" parent="jgNTlZRsylbbgRsnklGr-18">
          <mxGeometry x="-0.1148" y="1" relative="1" as="geometry">
            <mxPoint as="offset" />
          </mxGeometry>
        </mxCell>
        <mxCell id="jgNTlZRsylbbgRsnklGr-22" style="edgeStyle=orthogonalEdgeStyle;rounded=0;orthogonalLoop=1;jettySize=auto;html=1;entryX=1;entryY=0.5;entryDx=0;entryDy=0;" edge="1" parent="1" source="jgNTlZRsylbbgRsnklGr-6" target="jgNTlZRsylbbgRsnklGr-7">
          <mxGeometry relative="1" as="geometry">
            <mxPoint x="-150" y="840" as="targetPoint" />
            <Array as="points">
              <mxPoint x="-150" y="700" />
              <mxPoint x="-150" y="831" />
            </Array>
          </mxGeometry>
        </mxCell>
        <mxCell id="jgNTlZRsylbbgRsnklGr-23" value="no" style="edgeLabel;html=1;align=center;verticalAlign=middle;resizable=0;points=[];" vertex="1" connectable="0" parent="jgNTlZRsylbbgRsnklGr-22">
          <mxGeometry x="0.2356" relative="1" as="geometry">
            <mxPoint as="offset" />
          </mxGeometry>
        </mxCell>
        <mxCell id="jgNTlZRsylbbgRsnklGr-6" value="IntupArray[i].Length &amp;lt;=3" style="rhombus;whiteSpace=wrap;html=1;" vertex="1" parent="1">
          <mxGeometry x="-330" y="660" width="160" height="80" as="geometry" />
        </mxCell>
        <mxCell id="jgNTlZRsylbbgRsnklGr-24" style="edgeStyle=orthogonalEdgeStyle;rounded=0;orthogonalLoop=1;jettySize=auto;html=1;entryX=0;entryY=0.5;entryDx=0;entryDy=0;" edge="1" parent="1" source="jgNTlZRsylbbgRsnklGr-7" target="jgNTlZRsylbbgRsnklGr-5">
          <mxGeometry relative="1" as="geometry">
            <mxPoint x="-400" y="580" as="targetPoint" />
            <Array as="points">
              <mxPoint x="-390" y="830" />
              <mxPoint x="-390" y="585" />
            </Array>
          </mxGeometry>
        </mxCell>
        <mxCell id="jgNTlZRsylbbgRsnklGr-7" value="i = i + 1" style="rounded=0;whiteSpace=wrap;html=1;" vertex="1" parent="1">
          <mxGeometry x="-310" y="801" width="120" height="60" as="geometry" />
        </mxCell>
        <mxCell id="jgNTlZRsylbbgRsnklGr-27" style="edgeStyle=orthogonalEdgeStyle;rounded=0;orthogonalLoop=1;jettySize=auto;html=1;entryX=0.5;entryY=0;entryDx=0;entryDy=0;" edge="1" parent="1" source="jgNTlZRsylbbgRsnklGr-8" target="jgNTlZRsylbbgRsnklGr-9">
          <mxGeometry relative="1" as="geometry" />
        </mxCell>
        <mxCell id="jgNTlZRsylbbgRsnklGr-8" value="NewArray[ ]" style="shape=document;whiteSpace=wrap;html=1;boundedLbl=1;" vertex="1" parent="1">
          <mxGeometry x="-130" y="545" width="120" height="80" as="geometry" />
        </mxCell>
        <mxCell id="jgNTlZRsylbbgRsnklGr-9" value="End" style="ellipse;whiteSpace=wrap;html=1;" vertex="1" parent="1">
          <mxGeometry x="-130" y="680" width="120" height="80" as="geometry" />
        </mxCell>
        <mxCell id="jgNTlZRsylbbgRsnklGr-14" style="edgeStyle=orthogonalEdgeStyle;rounded=0;orthogonalLoop=1;jettySize=auto;html=1;" edge="1" parent="1" source="jgNTlZRsylbbgRsnklGr-5">
          <mxGeometry relative="1" as="geometry">
            <mxPoint x="-250" y="660" as="targetPoint" />
          </mxGeometry>
        </mxCell>
        <mxCell id="jgNTlZRsylbbgRsnklGr-21" value="yes" style="text;html=1;align=center;verticalAlign=middle;resizable=0;points=[];autosize=1;strokeColor=none;fillColor=none;" vertex="1" parent="1">
          <mxGeometry x="-260" y="628" width="40" height="30" as="geometry" />
        </mxCell>
      </root>
    </mxGraphModel>
  </diagram>
</mxfile>
